<?xml version="1.0" encoding="utf-8"?>
<!-- Generator: Adobe Illustrator 24.0.1, SVG Export Plug-In . SVG Version: 6.00 Build 0)  -->
<svg version="1.1" id="Layer_1" xmlns="http://www.w3.org/2000/svg" xmlns:xlink="http://www.w3.org/1999/xlink" x="0px" y="0px"
	 viewBox="0 0 6024.2 3488.3" style="enable-background:new 0 0 6024.2 3488.3;" xml:space="preserve">
<style type="text/css">
	.st0{opacity:0.54;}
	.st1{fill:#E9F7FC;}
	.st2{opacity:0.56;}
	.st3{fill:#F9F9F9;}
	.st4{fill:#D8D8D8;}
	.st5{fill:#B2B2B2;}
	.st6{fill:none;stroke:#B2B2B2;stroke-miterlimit:10;}
	.st7{fill:#FCEE21;}
	.st8{fill:#00C905;}
	.st9{fill:none;stroke:#FF0000;stroke-width:2;stroke-miterlimit:10;}
</style>
<g id="NON_INTERACTIVE_ITEMS">
	<g id="WALKING_PATH" class="st0">
		<polygon id="walking-path" class="st1" points="2214.4,2772.4 2214.4,2278.6 1497,2278.6 1497,2563.1 690.2,2563.1 690.2,1580.1 
			1262.8,1580.1 1263.6,1404 2086.5,1404 2086.5,1007.3 2845.1,1007.3 2845.1,1106.1 3899.4,1104.3 3899.4,908.7 4402,908.7 
			4402,566.5 4967,566.5 4967,1365.9 5404.5,1365.9 5404.5,2021.7 4868.7,2021.7 4868.7,2080.4 4178.8,2080.5 4178.8,2379.2 
			2891.2,2379.2 2891.2,2772.4 		"/>
	</g>
	<g id="PARKING_-_OUTER" class="st2">
		<path id="parking-outer" class="st3" d="M2214.1,3485.3v-671.1c0-1.7,1.3-3,3-3h714.1c1.7,0,3-1.3,3-3v-387.2c0-1.7,1.3-3,3-3
			h1281.6c1.7,0,3-1.3,3-3v-292.8c0-1.7,1.3-3,3-3h683.9c1.7,0,3-1.3,3-3v-52.8c0-1.7,1.3-3,3-3h1106.4c1.7,0,3,1.3,3,3v1404.9
			c0,11-9,20-20,20H2217.1C2215.5,3488.3,2214.1,3486.9,2214.1,3485.3z"/>
		<path id="parking-outer-2" class="st3" d="M0,3468.3V1582.5c0-1.7,1.3-3,3-3h644.5c1.7,0,3,1.3,3,3v1016.2c0,1.7,1.3,3,3,3H1533
			c1.7,0,3-1.3,3-3v-278.4c0-1.7,1.3-3,3-3h632.7c1.7,0,3,1.3,3,3v1165c0,1.7-1.3,3-3,3l0,0H20C9,3488.3,0,3479.3,0,3468.3z"/>
		<path id="parking-outer-3" class="st3" d="M0,1537.1V20C0,8.9,9,0,20,0h2023.8c1.7,0,3,1.3,3,3v1358c0,1.7-1.3,3-3,3h-818
			c-1.7,0-3,1.3-3,3l0.6,170.1c0,1.7-1.3,3-3,3H3C1.3,1540.1,0,1538.8,0,1537.1C0,1537.1,0,1537.1,0,1537.1z"/>
		<path id="parking-outer-4" class="st3" d="M2884.1,1061.3v-91c0-1.7-1.3-3-3-3h-791.9c-1.7,0-3-1.3-3-3V3c0-1.7,1.3-3,3-3h2270.2
			c1.7,0,3,1.3,3,3v862.7c0,1.7-1.3,3-3,3h-496.6c-1.7,0-3,1.3-3,3v189.6c0,1.7-1.3,3-3,3h-969.7
			C2885.5,1064.3,2884.1,1063,2884.1,1061.3z"/>
		<path id="parking-outer-5" class="st3" d="M5443.6,2018v-689.1c0-1.7-1.3-3-3-3H5009c-1.7,0-3-1.3-3-3l3.2-793.3c0-1.7-1.3-3-3-3
			h-601.5c-1.7,0-3-1.3-3-3V3c0-1.7,1.3-3,3-3h1599.5c11,0,20,9,20,20v1998c0,1.7-1.3,3-3,3h-574.6
			C5445,2021,5443.6,2019.6,5443.6,2018z"/>
	</g>
	<g id="PARKING_ICONS">
		<g id="parking-icon">
			<path class="st4" d="M3488.5,3014.6c-1.9-22.3-21.5-38.9-43.8-37.1c-19.7,1.6-35.4,17.3-37.1,37.1h4.1
				c1.9-20.1,19.7-34.8,39.8-32.9c17.5,1.6,31.3,15.5,32.9,32.9H3488.5z M3484.5,3020.9c-1.6,20.1-19.2,35.1-39.3,33.4
				c-17.8-1.4-32-15.6-33.4-33.4h-4.1c1.6,22.3,21.1,39.1,43.4,37.5c20-1.5,36-17.4,37.5-37.5H3484.5z"/>
			<path class="st4" d="M3446.6,3018.9h1.6c1.9,0.2,3.8,0,5.6-0.6c0.9-0.5,1.7-1.2,2.2-2.1c0.6-0.9,0.8-2,0.8-3.1
				c0-1.4-0.4-2.7-1.1-3.8c-0.7-0.8-1.8-1.4-2.9-1.6c-1.7-0.2-3.4-0.3-5.1-0.2h-4.3v30.4h-6.7v-36.1h11.5c2.7-0.1,5.4,0.1,8,0.6
				c2.1,0.6,3.9,1.8,5.1,3.6c1.4,2.1,2.1,4.5,2,7c0.1,2-0.3,4-1.2,5.8c-1.3,2.7-3.8,4.6-6.7,5.3c-2.3,0.4-4.6,0.6-6.9,0.5h-2V3018.9
				z"/>
		</g>
		<g id="parking-icon-2">
			<path class="st4" d="M5242.6,3014.4c-1.9-23.4-22.5-40.8-45.9-38.9c-20.7,1.7-37.2,18.2-38.9,38.9h4.3
				c2-21.1,20.6-36.5,41.7-34.6c18.3,1.7,32.9,16.2,34.6,34.6H5242.6z M5238.4,3021c-1.7,21.1-20.2,36.7-41.3,35
				c-18.7-1.5-33.5-16.3-35-35h-4.3c1.7,23.4,22.1,41,45.6,39.3c21-1.5,37.8-18.3,39.3-39.3H5238.4z"/>
			<path class="st4" d="M5198.8,3018.9h1.7c2,0.2,4,0,5.9-0.6c1-0.5,1.8-1.2,2.3-2.2c0.6-1,0.9-2.1,0.9-3.3c0-1.4-0.4-2.8-1.2-4
				c-0.8-0.9-1.8-1.4-3-1.6c-1.8-0.2-3.6-0.3-5.4-0.2h-4.5v31.9h-7.1v-37.8h12.1c2.8-0.1,5.6,0.1,8.4,0.6c2.2,0.6,4,1.9,5.4,3.7
				c1.5,2.2,2.2,4.8,2.1,7.4c0.1,2.1-0.4,4.2-1.2,6.1c-0.7,1.5-1.8,2.8-3.1,3.8c-1.2,0.8-2.5,1.4-3.9,1.8c-2.4,0.4-4.8,0.6-7.2,0.5
				h-2L5198.8,3018.9z"/>
		</g>
		<g id="parking-icon-3">
			<path class="st4" d="M5574.5,567.6c-2-23.4-22.5-40.8-46-38.8c-20.7,1.7-37.1,18.1-38.8,38.8h4.3c1.9-21.1,20.6-36.6,41.6-34.6
				c18.4,1.7,32.9,16.2,34.6,34.6H5574.5z M5570.2,574.2c-1.7,21.1-20.1,36.8-41.2,35.1c-18.8-1.5-33.6-16.4-35.1-35.1h-4.3
				c1.7,23.4,22.1,41,45.6,39.3c21-1.5,37.8-18.3,39.3-39.3H5570.2z"/>
			<path class="st4" d="M5530.5,572.1h1.7c2,0.2,4,0,5.9-0.6c1-0.5,1.8-1.2,2.3-2.2c0.6-1,0.9-2.1,0.9-3.3c0-1.4-0.4-2.8-1.2-4
				c-0.8-0.9-1.8-1.4-3-1.6c-1.8-0.2-3.6-0.3-5.4-0.2h-4.5V592h-7.1v-37.8h12c4.5,0,7,0.2,8.4,0.6c2.2,0.6,4,1.9,5.4,3.7
				c1.5,2.2,2.2,4.8,2.1,7.4c0.1,2.1-0.4,4.2-1.2,6.1c-0.7,1.5-1.8,2.8-3.1,3.8c-1.2,0.8-2.5,1.4-3.9,1.8c-2.4,0.4-4.8,0.6-7.2,0.5
				h-2L5530.5,572.1z"/>
		</g>
		<g id="parking-icon-4">
			<path class="st4" d="M2661,381c-2-23.4-22.5-40.8-46-38.8c-20.7,1.7-37.1,18.1-38.8,38.8h4.3c1.9-21.1,20.6-36.6,41.6-34.6
				c18.4,1.7,32.9,16.2,34.6,34.6H2661z M2656.8,387.6c-1.7,21.1-20.2,36.7-41.3,35c-18.7-1.5-33.5-16.3-35-35h-4.3
				c1.7,23.4,22.1,41,45.6,39.3c21-1.5,37.8-18.3,39.3-39.3H2656.8z"/>
			<path class="st4" d="M2617.1,385.5h1.7c2,0.2,4,0,5.9-0.6c1-0.5,1.8-1.2,2.3-2.2c0.6-1,0.9-2.1,0.9-3.3c0-1.4-0.4-2.8-1.2-4
				c-0.8-0.9-1.8-1.4-3-1.6c-1.8-0.2-3.6-0.3-5.4-0.2h-4.5v31.9h-7.1v-37.8h12.1c4.5,0,7,0.2,8.4,0.6c2.2,0.6,4,1.9,5.4,3.7
				c1.5,2.2,2.2,4.8,2.1,7.4c0.1,2.1-0.4,4.2-1.2,6.1c-0.7,1.5-1.8,2.8-3.1,3.8c-1.2,0.8-2.5,1.4-3.9,1.8c-2.4,0.4-4.8,0.6-7.2,0.5
				h-2L2617.1,385.5z"/>
		</g>
		<g id="parking-icon-5">
			<path class="st4" d="M3843,381c-1.9-23.4-22.5-40.8-45.9-38.9c-20.7,1.7-37.2,18.2-38.9,38.9h4.3c2-21.1,20.6-36.5,41.7-34.6
				c18.3,1.7,32.9,16.2,34.6,34.6H3843z M3838.8,387.6c-1.7,21.1-20.2,36.7-41.3,35c-18.7-1.5-33.5-16.3-35-35h-4.3
				c1.7,23.4,22.1,41,45.6,39.3c21-1.5,37.8-18.3,39.3-39.3H3838.8z"/>
			<path class="st4" d="M3799.1,385.5h1.7c2,0.2,4,0,5.9-0.6c1-0.5,1.8-1.2,2.3-2.2c0.6-1,0.9-2.1,0.9-3.3c0-1.4-0.4-2.8-1.2-4
				c-0.8-0.9-1.8-1.4-3-1.6c-1.8-0.2-3.6-0.3-5.4-0.2h-4.5v31.9h-7.1v-37.8h12.1c4.5,0,7,0.2,8.4,0.6c2.2,0.6,4,1.9,5.4,3.7
				c1.5,2.2,2.2,4.8,2.1,7.4c0.1,2.1-0.4,4.2-1.2,6.1c-0.7,1.5-1.8,2.8-3.1,3.8c-1.2,0.8-2.5,1.4-3.9,1.8c-2.4,0.4-4.8,0.6-7.2,0.5
				h-2L3799.1,385.5z"/>
		</g>
		<g id="parking-icon-6">
			<path class="st4" d="M929.7,546.8c-1.9-23.4-22.5-40.8-45.9-38.9c-20.7,1.7-37.2,18.2-38.9,38.9h4.3c2-21.1,20.6-36.5,41.7-34.6
				c18.3,1.7,32.9,16.2,34.6,34.6H929.7z M925.4,553.4c-1.7,21.1-20.2,36.8-41.2,35.1c-18.7-1.5-33.5-16.4-35.1-35.1h-4.3
				c1.7,23.4,22.1,41,45.6,39.3c21-1.5,37.7-18.3,39.3-39.3H925.4z"/>
			<path class="st4" d="M885.7,551.3h1.7c2,0.2,4,0,5.9-0.6c1-0.5,1.8-1.2,2.3-2.2c0.6-1,0.9-2.1,0.8-3.3c0-1.4-0.4-2.8-1.2-4
				c-0.8-0.9-1.8-1.5-3-1.6c-1.8-0.2-3.6-0.3-5.4-0.2h-4.5v31.9h-7.1v-37.8h12.1c4.5,0,7,0.2,8.4,0.6c2.2,0.6,4.1,1.9,5.4,3.7
				c1.5,2.2,2.2,4.8,2.1,7.4c0.1,2.1-0.4,4.2-1.2,6.1c-1.4,2.8-3.9,4.9-7,5.5c-2.4,0.4-4.8,0.6-7.2,0.5h-2L885.7,551.3z"/>
		</g>
		<g id="parking-icon-7">
			<path class="st4" d="M421.6,2236.8c-1.9-23.4-22.5-40.8-45.9-38.9c-20.7,1.7-37.2,18.2-38.9,38.9h4.3c2-21.1,20.6-36.5,41.7-34.6
				c18.3,1.7,32.9,16.2,34.6,34.6H421.6z M417.3,2243.4c-1.7,21.1-20.2,36.7-41.3,35c-18.7-1.5-33.5-16.3-35-35h-4.3
				c1.7,23.4,22.1,41,45.6,39.3c21-1.5,37.7-18.3,39.3-39.3H417.3z"/>
			<path class="st4" d="M377.6,2241.3h1.7c2,0.2,4,0,5.9-0.6c1-0.5,1.8-1.2,2.3-2.2c0.6-1,0.9-2.1,0.8-3.3c0-1.4-0.4-2.8-1.2-4
				c-0.8-0.9-1.8-1.4-3-1.6c-1.8-0.2-3.6-0.3-5.4-0.2h-4.5v31.9h-7.1v-37.8h12.1c2.8-0.1,5.6,0.1,8.4,0.6c2.2,0.6,4,1.9,5.4,3.7
				c1.5,2.2,2.2,4.8,2.1,7.4c0.1,2.1-0.4,4.2-1.2,6.1c-0.7,1.5-1.8,2.8-3.1,3.8c-1.2,0.8-2.5,1.4-3.9,1.8c-2.4,0.4-4.8,0.6-7.2,0.5
				h-2L377.6,2241.3z"/>
		</g>
		<g id="parking-icon-8">
			<path class="st4" d="M1344.3,3004.1c-1.9-23.4-22.5-40.8-45.9-38.9c-20.7,1.7-37.2,18.2-38.9,38.9h4.3
				c2-21.1,20.6-36.5,41.7-34.6c18.3,1.7,32.9,16.2,34.6,34.6H1344.3z M1340.1,3010.7c-1.7,21.1-20.2,36.8-41.2,35.1
				c-18.7-1.5-33.5-16.4-35.1-35.1h-4.3c1.7,23.4,22.1,41,45.6,39.3c21-1.5,37.7-18.3,39.3-39.3H1340.1z"/>
			<path class="st4" d="M1300.4,3008.6h1.7c2,0.2,4,0,5.9-0.6c1-0.5,1.8-1.2,2.3-2.2c0.6-1,0.9-2.1,0.8-3.3c0-1.4-0.4-2.8-1.2-4
				c-0.8-0.9-1.8-1.4-3-1.6c-1.8-0.2-3.6-0.3-5.4-0.2h-4.5v31.9h-7.1v-37.8h12.1c4.5,0,7,0.2,8.4,0.6c2.2,0.6,4.1,1.9,5.4,3.7
				c1.5,2.2,2.2,4.8,2.1,7.4c0.1,2.1-0.4,4.2-1.2,6.1c-0.7,1.5-1.8,2.8-3.1,3.8c-1.2,0.8-2.5,1.4-3.9,1.8c-2.4,0.4-4.8,0.6-7.2,0.5
				h-2L1300.4,3008.6z"/>
		</g>
	</g>
</g>
<g id="BIG_STORES">
	<path id="store-272" class="st5" d="M731.2,2518v-896.9c0-1.7,1.3-3,3-3H1455c1.7,0,3,1.3,3,3V2518c0,1.7-1.3,3-3,3H734.2
		C732.6,2521,731.2,2519.7,731.2,2518z"/>
	<path id="store-271" class="st5" d="M1860.2,1643.6v-196.1c0-1.7,1.3-3,3-3l0,0l261.3,1c1.7,0,3-1.3,3-3v-394.2c0-1.7,1.3-3,3-3
		h672.6c1.7,0,3,1.3,3,3v100.7c0,1.7,1.3,3,3,3h252.3c1.7,0,3,1.3,3,3v488.7c0,1.7-1.3,3-3,3H1863.2
		C1861.6,1646.6,1860.2,1645.2,1860.2,1643.6L1860.2,1643.6z"/>
	<path id="store-270" class="st5" d="M2255.5,2727.4v-287c0-1.7,1.3-3,3-3l290.1-1c1.7,0,3-1.3,3-3l1.1-141c0-1.7,1.3-3,3-3l187,0.2
		c1.7,0,3,1.3,3,3v434.8c0,1.7-1.3,3-3,3h-484.3C2256.8,2730.4,2255.5,2729,2255.5,2727.4
		C2255.5,2727.4,2255.5,2727.4,2255.5,2727.4z"/>
	<path id="store-269" class="st5" d="M4443.1,1336.6V607.5c0-1.7,1.3-3,3-3H4925c1.7,0,3,1.3,3,3v729.2c0,1.7-1.3,3-3,3h-478.9
		C4444.4,1339.6,4443.1,1338.3,4443.1,1336.6z"/>
	<path id="store-268" class="st5" d="M3736.3,1592.9c-1.7,0-3-1.3-3-3l0,0v-142.8c-0.7-80.4-32.6-144.2-97.4-194.9
		c-0.7-0.6-1.2-1.4-1.2-2.4v-95c0-1.7,1.3-3,3-3l299.7-0.4c1.7,0,3-1.3,3-3l0.1-198.8c0-1.7,1.3-3,3-3h493.6c1.7,0,3,1.3,3,3v444
		c0,1.7-1.3,3-3,3l-473.1,0.7c-1.7,0-3,1.3-3,3v56.9c0,1.7-1.3,3-3,3h-21.3c-1.7,0-3,1.3-3,3v126.6c0,1.7-1.3,3-3,3l0,0H3736.3z"/>
</g>
<g id="STORES">
	<path id="store-267" class="st5" d="M1461,1950.1v-332c0-1.7-1.3-3-3-3h-150.5c-1.7,0-3-1.3-3-3v-164.6c0-1.7,1.3-3,3-3h252.2
		c1.7,0,3,1.3,3,3l0.3,200c0,0.8,0.3,1.6,0.9,2.1l46.3,46c0.6,0.6,1.3,0.9,2.1,0.9l97.3,0.2c0.8,0,1.6,0.3,2.1,0.9l48.2,48.2
		c0.6,0.6,0.9,1.3,0.9,2.1l-0.2,51.5c0,1.7-1.3,3-3,3h-59.6c-1.7,0-3,1.3-3,3v144.8c0,1.7-1.3,3-3,3h-228c-1.7,0-3-1.3-3-3
		C1461,1950.2,1461,1950.1,1461,1950.1z"/>
	<path id="store-266" class="st5" d="M1698,1950.1v-141.8c0-1.7,1.3-3,3-3l0,0h56.5c1.7,0,3,1.3,3,3l0,0v126c0,1.3-0.9,2.5-2.2,2.9
		l-54.3,15.8c-0.3,0.1-0.6,0.1-0.8,0.1h-2.2C1699.4,1953.1,1698,1951.8,1698,1950.1C1698,1950.1,1698,1950.1,1698,1950.1z"/>
	<path id="store-265" class="st5" d="M1763.8,1838.5v-92c0-0.8-0.3-1.6-0.9-2.1l-50-50c-0.6-0.6-1.3-0.9-2.1-0.9l-97.3-0.2
		c-0.8,0-1.5-0.3-2.1-0.9l-44.6-44.2c-0.6-0.6-0.9-1.3-0.9-2.1l-0.3-198.7c0-1.7,1.3-3,3-3h285.6c1.7,0,3,1.3,3,3v391.1
		c0,1.7-1.3,3-3,3l-87.5-0.1C1765.1,1841.4,1763.8,1840.1,1763.8,1838.5z"/>
	<path id="store-264" class="st5" d="M2056.1,1652.6v186c0,1.7-1.3,3-3,3h-189.9c-1.7,0-3-1.3-3-3v-186c0-1.7,1.3-3,3-3h189.9
		C2054.7,1649.6,2056.1,1650.9,2056.1,1652.6z"/>
	<path id="store-263" class="st5" d="M2107.5,1925.4v-43.8c0-1.7-1.3-3-3-3h-42.4c-1.7,0-3-1.3-3-3v-223.1c0-1.7,1.3-3,3-3l0,0
		h124.8c1.7,0,3,1.3,3,3l0,0v223.1c0,1.7-1.3,3-3,3h-30.4c-1.7,0-3,1.3-3,3l-0.1,43.8c0,1.7-1.3,3-3,3h-40
		C2108.8,1928.4,2107.5,1927.1,2107.5,1925.4C2107.5,1925.4,2107.5,1925.4,2107.5,1925.4z"/>
	<path id="store-262" class="st5" d="M2354.4,1937.5l0.3-92.2c0-1.7-1.3-3-3-3l-155.8-0.3c-1.7,0-3-1.3-3-3l0,0v-186.4
		c0-1.7,1.3-3,3-3l0,0h214.3c1.7,0,3,1.3,3,3l0,0v245.8c0,0.9-0.4,1.7-1,2.2c-10.9,9.7-20,22.5-27.1,38.1c-0.5,1.1-1.6,1.8-2.7,1.8
		h-25.1C2355.8,1940.5,2354.4,1939.2,2354.4,1937.5C2354.4,1937.5,2354.4,1937.5,2354.4,1937.5z"/>
	<path id="store-261" class="st5" d="M2616.6,1938.6c-5.1-13.1-13.8-25.6-26.4-38.1c-0.6-0.6-0.9-1.3-0.9-2.1v-245.7
		c0-1.7,1.3-3,3-3l0,0h210c1.7,0,3,1.3,3,3l0,0v128.9c0,1.7-1.3,3-3,3l-5.4-0.1c-1.7,0-3,1.3-3,3v29.6c0,1.7-1.3,3-3,3l0,0h-42.2
		c-1.7,0-3,1.3-3,3v16.8c0,1.7-1.3,3-3,3l0,0l-91.4,0.2c-1.7,0-3,1.3-3,3l-0.4,91.5c0,1.7-1.3,3-3,3h-25.5
		C2618.1,1940.5,2617,1939.7,2616.6,1938.6z"/>
	<path id="store-260" class="st5" d="M2748.6,1937.5v-111.6c0-1.7,1.3-3,3-3h42.1c1.7,0,3-1.3,3-3v-29.5c0-1.7,1.3-3,3-3h2.5
		c1.7,0,3,1.3,3,3v147.1c0,1.7-1.3,3-3,3h-50.6C2750,1940.5,2748.7,1939.1,2748.6,1937.5z"/>
	<path id="store-259" class="st5" d="M2808.3,1937.5v-284.9c0-1.7,1.3-3,3-3l0,0h250.1c1.7,0,3,1.3,3,3l0,0v185.3c0,1.7-1.3,3-3,3
		h-114.7c-1.7,0-3,1.3-3,3v93.6c0,1.7-1.3,3-3,3h-129.4C2809.7,1940.5,2808.3,1939.2,2808.3,1937.5z"/>
	<path id="store-258" class="st5" d="M3067.4,1438.5v-283.6c0-1.7,1.3-3,3-3h267.8c1.7,0,3,1.3,3,3v94.7c0,1-0.5,2-1.4,2.6
		c-34.6,21.2-60.8,52.9-78.1,94.3c-0.5,1.1-1.5,1.8-2.7,1.8h-4.8c-1.7,0-3,1.3-3,3l-0.1,87.2c0,1.7-1.3,3-3,3h-177.6
		C3068.8,1441.4,3067.5,1440.1,3067.4,1438.5z"/>
	<path id="store-257" class="st5" d="M3067.4,1937.5v-490c0-1.7,1.3-3,3-3h267.8c1.7,0,3,1.3,3,3v293.8c0,0.8-0.3,1.6-0.9,2.1
		l-49.9,49c-0.6,0.6-0.9,1.3-0.9,2.2l0.2,44.9c0,1.7-1.3,3-3,3l0,0l-142.8,0.7c-1.7,0-3,1.3-3,3l0.4,91.3c0,1.7-1.3,3-3,3h-67.9
		C3068.8,1940.4,3067.5,1939.1,3067.4,1937.5z"/>
	<path id="store-256" class="st5" d="M4235.1,1529.1v60.8c0,1.7-1.3,3-3,3h-292.4c-1.7,0-3-1.3-3-3v-60.8c0-1.7,1.3-3,3-3h292.4
		C4233.7,1526.1,4235.1,1527.4,4235.1,1529.1z"/>
	<path id="store-255" class="st5" d="M3936.6,1520.1v-53.8c0-1.7,1.3-3,3-3h21.3c1.7,0,3-1.3,3-3v-56.9c0-1.7,1.3-3,3-3l166.1-0.2
		c1.7,0,3,1.3,3,3v117c0,1.7-1.3,3-3,3h-193.4C3938,1523.1,3936.6,1521.8,3936.6,1520.1C3936.6,1520.1,3936.6,1520.1,3936.6,1520.1z
		"/>
	<path id="store-254" class="st5" d="M3941.7,1917.6v-119.2c0-1.7,1.3-3,3-3h135.5c1.7,0,3,1.3,3,3v119.2c0,1.7-1.3,3-3,3h-135.5
		C3943,1920.6,3941.7,1919.2,3941.7,1917.6z"/>
	<path id="store-253" class="st5" d="M3636.4,1917.6v-71c0-0.8,0.3-1.5,0.9-2.1l47.2-48.1c0.6-0.6,1.3-0.9,2.1-0.9h249
		c1.7,0,3,1.3,3,3v119.2c0,1.7-1.3,3-3,3h-296.2C3637.8,1920.6,3636.4,1919.3,3636.4,1917.6
		C3636.4,1917.6,3636.4,1917.6,3636.4,1917.6z"/>
	<path id="store-252" class="st5" d="M3646.5,2336.9c-1.7,0-3-1.4-2.9-3.1c0-0.8,0.4-1.6,0.9-2.1c54.5-51.4,83.8-110,89.4-179
		v-109.8c0-1.7-1.3-3-3-3l-91.5-0.1c-1.7,0-3-1.3-3-3v-110.2c0-1.7,1.3-3,3-3h440.7c1.7,0,3,1.3,3,3v407.3c0,1.7-1.3,3-3,3H3646.5z"
		/>
	<path id="store-251" class="st5" d="M2846.3,2292.5v434.8c0,1.7-1.3,3-3,3h-91.7c-1.7,0-3-1.3-3-3v-434.8c0-1.7,1.3-3,3-3h91.7
		C2845,2289.5,2846.3,2290.9,2846.3,2292.5z"/>
	<path id="store-250" class="st5" d="M3046.5,2335.5v-72.7c0-1.7,1.3-3,3-3l59.7-0.1c1.7,0,3-1.3,3-3v-210.6c0-1.7,1.3-3,3-3H3239
		c1.7,0,3,1.3,3,3v103.3c6.3,71.9,36.5,132.2,92.4,183.9c1.2,1.1,1.3,3,0.2,4.2c-0.6,0.6-1.3,0.9-2.2,1h-282.9
		C3047.8,2338.5,3046.5,2337.2,3046.5,2335.5z"/>
	<path id="store-249" class="st5" d="M3046.5,2255.2v-209.1c0-1.7,1.3-3,3-3h56.7c1.7,0,3,1.3,3,3v209.1c0,1.7-1.3,3-3,3h-56.7
		C3047.8,2258.2,3046.5,2256.9,3046.5,2255.2z"/>
	<path id="store-248" class="st5" d="M2849.3,2335.5V2244c0-1.7,1.3-3,3-3h117c1.7,0,3-1.3,3-3v-191.9c0-1.7,1.3-3,3-3h65.1
		c1.7,0,3,1.3,3,3v289.4c0,1.7-1.3,3-3,3h-188.1C2850.7,2338.5,2849.3,2337.2,2849.3,2335.5z"/>
	<path id="store-247" class="st5" d="M2792,2234.9v-188.8c0-1.7,1.3-3,3-3h171.4c1.7,0,3,1.3,3,3v188.8c0,1.7-1.3,3-3,3H2795
		C2793.4,2237.9,2792,2236.6,2792,2234.9z"/>
	<path id="store-246" class="st5" d="M2728.4,2234.9v-188.8c0-1.7,1.3-3,3-3h54.6c1.7,0,3,1.3,3,3v188.8c0,1.7-1.3,3-3,3h-54.6
		C2729.7,2237.9,2728.4,2236.6,2728.4,2234.9z"/>
	<path id="store-245" class="st5" d="M2552.7,2283.3v-173.7c0-1.1,0.6-2.1,1.6-2.6c30.5-17,50.9-37.4,62-62.1
		c0.5-1.1,1.6-1.8,2.7-1.8h103.4c1.7,0,3,1.3,3,3V2238c0,1.7,1.3,3,3,3h114.9c1.7,0,3,1.3,3,3v39.6c0,1.7-1.3,3-3,3l-287.6-0.2
		C2554,2286.4,2552.7,2285,2552.7,2283.3C2552.7,2283.4,2552.7,2283.3,2552.7,2283.3z"/>
	<path id="store-244" class="st5" d="M2255.5,2431.4l-0.1-186.5c0-1.7,1.3-3,3-3h19.6c1.7,0,3-1.3,3-3v-192.8c0-1.7,1.3-3,3-3h105.2
		c40.2,0,60.1,19.9,60.8,60.7v327.5c0,1.7-1.3,3-3,3h-188.5C2256.8,2434.4,2255.5,2433,2255.5,2431.4z"/>
	<path id="store-243" class="st5" d="M2219.3,2235.9v-189.8c0-1.7,1.3-3,3-3h52.8c1.7,0,3,1.3,3,3v189.8c0,1.7-1.3,3-3,3h-52.8
		C2220.6,2238.9,2219.3,2237.5,2219.3,2235.9z"/>
	<path id="store-242" class="st5" d="M2155.4,2235.9v-189.8c0-1.7,1.3-3,3-3h54.8c1.7,0,3,1.3,3,3v189.8c0,1.7-1.3,3-3,3h-54.8
		C2156.8,2238.9,2155.4,2237.5,2155.4,2235.9z"/>
	<path id="store-241" class="st5" d="M2106,2235.9v-189.8c0-1.7,1.3-3,3-3h39.9c1.7,0,3,1.3,3,3v189.8c0,1.7-1.3,3-3,3H2109
		C2107.4,2238.9,2106,2237.5,2106,2235.9z"/>
	<path id="store-240" class="st5" d="M2059.9,2168.3v-122.2c0-1.7,1.3-3,3-3h37.1c1.7,0,3,1.3,3,3v122.2c0,1.7-1.3,3-3,3h-37.1
		C2061.2,2171.3,2059.9,2170,2059.9,2168.3z"/>
	<path id="store-239" class="st5" d="M1880,2235.9v-168.8c0-0.8,0.3-1.6,0.9-2.2l22-21c0.6-0.5,1.3-0.8,2.1-0.8h148.9
		c1.7,0,3,1.3,3,3v125.2c0,1.7,1.3,3,3,3h40.1c1.7,0,3,1.3,3,3v58.6c0,1.7-1.3,3-3,3h-217C1881.4,2238.8,1880,2237.5,1880,2235.9z"
		/>
	<path id="store-238" class="st5" d="M1461,2151.1v-104.9c0-1.7,1.3-3,3-3h93.1c1.7,0,3,1.3,3,3v104.9c0,1.7-1.3,3-3,3H1464
		C1462.4,2154.1,1461,2152.7,1461,2151.1z"/>
	<path id="store-237" class="st5" d="M1461,2235.9V2160c0-1.7,1.3-3,3-3h96.1c1.7,0,3-1.3,3-3v-107.9c0-1.7,1.3-3,3-3h149
		c1.7,0,3,1.3,3,3v189.8c0,1.7-1.3,3-3,3H1464C1462.4,2238.9,1461,2237.5,1461,2235.9L1461,2235.9z"/>
	<path id="store-236" class="st5" d="M2276.6,1947.9v21.7c0,1.1-0.9,2-2,2h-44c-1.1,0-2-0.9-2-2v-21.7c0-1.1,0.9-2,2-2h44
		C2275.7,1945.9,2276.6,1946.8,2276.6,1947.9z"/>
	<path id="store-235" class="st5" d="M1944.9,1948v21.7c0,1.1-0.9,2-2,2h-44c-1.1,0-2-0.9-2-2V1948c0-1.1,0.9-2,2-2h44
		C1944,1946,1944.9,1946.9,1944.9,1948z"/>
	<path id="store-234" class="st5" d="M2359.6,1948v21.7c0,1.1-0.9,2-2,2h-44c-1.1,0-2-0.9-2-2V1948c0-1.1,0.9-2,2-2h44
		C2358.7,1946,2359.6,1946.8,2359.6,1948z"/>
	<path id="store-233" class="st5" d="M3342.4,2007v21.7c0,1.1-0.9,2-2,2h-44c-1.1,0-2-0.9-2-2V2007c0-1.1,0.9-2,2-2h44
		C3341.6,2005,3342.4,2005.9,3342.4,2007z"/>
	<path id="store-270-2" class="st5" d="M5365.6,1406.8v569.8c0,1.7-1.3,3-3,3h-526.8c-1.7,0-3-1.3-3-3v-569.8c0-1.7,1.3-3,3-3h526.8
		C5364.2,1403.8,5365.6,1405.2,5365.6,1406.8z"/>
	<path id="store-271-2" class="st5" d="M4136.4,1845.5h678.7c1.7,0,3,1.3,3,3v191.1c0,1.7-1.3,3-3,3h-678.7c-1.7,0-3-1.3-3-3v-191.1
		C4133.4,1846.9,4134.7,1845.5,4136.4,1845.5z"/>
	<path id="store-272-2" class="st5" d="M4446.1,1343.1h181.5c1.7,0,3,1.3,3,3v243.8c0,1.7-1.3,3-3,3h-181.5c-1.7,0-3-1.3-3-3v-243.8
		C4443.1,1344.4,4444.4,1343.1,4446.1,1343.1z"/>
	<path id="store-273" class="st5" d="M4636.2,1343.1H4815c1.7,0,3,1.3,3,3v243.8c0,1.7-1.3,3-3,3h-178.8c-1.7,0-3-1.3-3-3v-243.8
		C4633.2,1344.4,4634.6,1343.1,4636.2,1343.1z"/>
</g>
<g id="WALLS_-_STORES_2D">
	<rect id="extra-area" x="2453.6" y="1669.5" class="st6" width="95.4" height="123.6"/>
	<rect id="extra-area-2" x="2453.6" y="1845.8" class="st6" width="95.4" height="95.4"/>
	<rect id="extra-area-3" x="4328.4" y="1648.1" class="st6" width="194.3" height="95.1"/>
	<rect id="extra-area-4" x="3932.7" y="1648.1" class="st6" width="292.4" height="95.1"/>
	<polygon id="extra-area-5" class="st6" points="3634.4,1743.1 3586.3,1792.2 3575.2,1780.5 3474.2,1881.5 3483.9,1892 
		3439.2,1940.9 3342.7,1940.3 3342.5,1846.1 3390.7,1796.8 3402.2,1808.1 3502.5,1707.8 3490.1,1696.3 3539.9,1646.5 3634.4,1648.1 
			"/>
</g>
<g id="ESCALATORS">
	<rect id="escalator-26-down-start" x="1991.5" y="1897.7" class="st7" width="11.9" height="11.9"/>
	<rect id="escalator-25-up-end" x="1991.5" y="1878.8" class="st7" width="11.9" height="11.9"/>
	<rect id="escalator-28-down-start" x="2515.1" y="2116.8" class="st7" width="21" height="21"/>
	<rect id="escalator-27-up-end" x="2473" y="2116.8" class="st7" width="21" height="21"/>
	<rect id="escalator-30-down-start" x="3280.9" y="1898" class="st7" width="13.6" height="13.6"/>
	<rect id="escalator-29-up-end" x="3280.9" y="1873.2" class="st7" width="13.6" height="13.6"/>
	<rect id="escalator-32-down-start" x="3504.1" y="1308.3" class="st7" width="21" height="21"/>
	<rect id="escalator-31-up-end" x="3462" y="1308.3" class="st7" width="21" height="21"/>
	<rect id="escalator-34-down-start" x="3769.4" y="1703.2" class="st7" width="13.6" height="13.6"/>
	<rect id="escalator-33-up-end" x="3769.4" y="1678.4" class="st7" width="13.6" height="13.6"/>
	<rect id="escalator-36-down-start" x="4640.3" y="1703.2" class="st7" width="13.6" height="13.6"/>
	<rect id="escalator-35-up-end" x="4640.3" y="1678.4" class="st7" width="13.6" height="13.6"/>
</g>
<g id="AMENITIES">
	<rect id="amenity-27" x="2005.2" y="1878.5" class="st8" width="31.1" height="31.1"/>
	<rect id="amenity-26" x="2488.2" y="2079.7" class="st8" width="31.1" height="31.1"/>
	<rect id="amenity-25" x="3245.5" y="1877.1" class="st8" width="31.1" height="31.1"/>
	<rect id="amenity-24" x="3733.2" y="1682.1" class="st8" width="31.1" height="31.1"/>
	<rect id="amenity-23" x="4678.6" y="1682.2" class="st8" width="31.1" height="31.1"/>
</g>
<g id="ROUTES">
	<line id="route-path" class="st9" x1="1989.2" y1="1958.8" x2="1989.2" y2="1893.9"/>
	<line id="route-path-2" class="st9" x1="1960.8" y1="1839.6" x2="1989.2" y2="1893.9"/>
	<line id="route-path-3" class="st9" x1="1989.2" y1="1958.8" x2="1943.3" y2="1958.8"/>
	<line id="route-path-4" class="st9" x1="1989.2" y1="1997.6" x2="1989.2" y2="1958.8"/>
	<line id="route-path-5" class="st9" x1="1989.2" y1="1997.6" x2="2081.5" y2="1997.6"/>
	<line id="route-path-6" class="st9" x1="2124.5" y1="1997.6" x2="2081.5" y2="1997.6"/>
	<line id="route-path-7" class="st9" x1="2124.5" y1="1997.6" x2="2129" y2="1997.6"/>
	<line id="route-path-8" class="st9" x1="2185.9" y1="1997.6" x2="2129" y2="1997.6"/>
	<line id="route-path-9" class="st9" x1="2185.9" y1="1997.6" x2="2248.6" y2="1997.6"/>
	<line id="route-path-10" class="st9" x1="2248.6" y1="1970" x2="2248.6" y2="1997.6"/>
	<line id="route-path-11" class="st9" x1="2248.6" y1="2044.1" x2="2248.6" y2="1997.6"/>
	<line id="route-path-12" class="st9" x1="2302.6" y1="1997.6" x2="2248.6" y2="1997.6"/>
	<line id="route-path-13" class="st9" x1="2302.6" y1="1997.6" x2="2303.1" y2="1839.6"/>
	<line id="route-path-14" class="st9" x1="2302.6" y1="1997.6" x2="2335.6" y2="1997.6"/>
	<line id="route-path-15" class="st9" x1="2335.6" y1="1969.6" x2="2335.6" y2="1997.6"/>
	<line id="route-path-16" class="st9" x1="2350.5" y1="1997.6" x2="2335.6" y2="1997.6"/>
	<line id="route-path-17" class="st9" x1="2350.5" y1="1997.6" x2="2350.5" y2="2044.8"/>
	<line id="route-path-18" class="st9" x1="2350.5" y1="1997.6" x2="2503.9" y2="1997.6"/>
	<line id="route-path-19" class="st9" x1="2503.9" y1="2095.3" x2="2503.9" y2="1997.6"/>
	<line id="route-path-20" class="st9" x1="2668.2" y1="1997.6" x2="2503.9" y2="1997.6"/>
	<line id="route-path-21" class="st9" x1="2668.2" y1="1997.6" x2="2668.2" y2="2044.8"/>
	<line id="route-path-22" class="st9" x1="2668.2" y1="1997.6" x2="2668.2" y2="1841"/>
	<line id="route-path-23" class="st9" x1="2668.2" y1="1997.6" x2="2758.7" y2="1997.6"/>
	<line id="route-path-24" class="st9" x1="2758.7" y1="2044.1" x2="2758.7" y2="1997.6"/>
	<line id="route-path-25" class="st9" x1="2777" y1="1997.6" x2="2758.7" y2="1997.6"/>
	<line id="route-path-26" class="st9" x1="2777" y1="1997.6" x2="2777" y2="1938.2"/>
	<line id="route-path-27" class="st9" x1="2777" y1="1997.6" x2="2880.7" y2="1997.6"/>
	<line id="route-path-28" class="st9" x1="2880.7" y1="2044.1" x2="2880.7" y2="1997.6"/>
	<line id="route-path-29" class="st9" x1="2936.4" y1="1997.6" x2="2880.7" y2="1997.6"/>
	<line id="route-path-30" class="st9" x1="2936.4" y1="1997.6" x2="2936.4" y2="1938.2"/>
	<line id="route-path-31" class="st9" x1="2936.4" y1="1997.6" x2="3009.1" y2="1997.6"/>
	<line id="route-path-32" class="st9" x1="3009.1" y1="2044.1" x2="3009.1" y2="1997.6"/>
	<line id="route-path-33" class="st9" x1="3077.8" y1="1997.6" x2="3009.1" y2="1997.6"/>
	<line id="route-path-34" class="st9" x1="3077.8" y1="1997.6" x2="3077.8" y2="2044.1"/>
	<line id="route-path-35" class="st9" x1="3077.8" y1="1997.6" x2="3172.2" y2="1997.6"/>
	<line id="route-path-36" class="st9" x1="3172.2" y1="1840.5" x2="3172.2" y2="1997.6"/>
	<line id="route-path-37" class="st9" x1="3172.2" y1="2044.2" x2="3172.2" y2="1997.6"/>
	<line id="route-path-38" class="st9" x1="3228.9" y1="1997.1" x2="3172.2" y2="1997.6"/>
	<line id="route-path-39" class="st9" x1="3228.9" y1="1997.1" x2="3228.9" y2="1892.6"/>
	<line id="route-path-40" class="st9" x1="3228.9" y1="1997.1" x2="3320.4" y2="1997.6"/>
	<line id="route-path-41" class="st9" x1="3320.4" y1="2007.4" x2="3320.4" y2="1997.6"/>
	<line id="route-path-42" class="st9" x1="3638.4" y1="1997.6" x2="3320.4" y2="1997.6"/>
	<line id="route-path-43" class="st9" x1="3261.1" y1="1892.6" x2="3228.9" y2="1892.6"/>
	<line id="route-path-44" class="st9" x1="3493.7" y1="1891.6" x2="3640.5" y2="1891"/>
	<line id="route-path-45" class="st9" x1="3493.7" y1="1891.6" x2="3493.7" y2="1697.7"/>
	<line id="route-path-46" class="st9" x1="3716.6" y1="1697.7" x2="3493.7" y2="1697.7"/>
	<line id="route-path-47" class="st9" x1="3337.1" y1="1697.7" x2="3493.7" y2="1697.7"/>
	<line id="route-path-48" class="st9" x1="3493.7" y1="1318.8" x2="3493.7" y2="1697.7"/>
	<line id="route-path-49" class="st9" x1="3493.7" y1="1296.7" x2="3493.7" y2="1318.8"/>
	<line id="route-path-50" class="st9" x1="3478.6" y1="1318.8" x2="3493.7" y2="1318.8"/>
	<line id="route-path-51" class="st9" x1="3508.4" y1="1318.8" x2="3493.7" y2="1318.8"/>
	<line id="route-path-52" class="st9" x1="3493.7" y1="1296.7" x2="3284" y2="1296.7"/>
	<line id="route-path-53" class="st9" x1="3493.7" y1="1296.7" x2="3690.9" y2="1296.7"/>
	<line id="route-path-54" class="st9" x1="3716.6" y1="1697.7" x2="3748.7" y2="1697.7"/>
	<line id="route-path-55" class="st9" x1="3776.2" y1="1697.7" x2="3748.7" y2="1697.7"/>
	<line id="route-path-56" class="st9" x1="3776.2" y1="1697.7" x2="3776.2" y2="1688.2"/>
	<line id="route-path-57" class="st9" x1="3776.2" y1="1697.7" x2="3776.2" y2="1706.2"/>
	<line id="route-path-58" class="st9" x1="3787.6" y1="1697.7" x2="3776.2" y2="1697.7"/>
	<line id="route-path-59" class="st9" x1="3787.6" y1="1697.7" x2="3787.6" y2="1587.6"/>
	<line id="route-path-60" class="st9" x1="4014.9" y1="1697.7" x2="4054.7" y2="1697.7"/>
	<line id="route-path-61" class="st9" x1="4536.8" y1="1697.7" x2="4054.7" y2="1697.7"/>
	<line id="route-path-62" class="st9" x1="4647.1" y1="1697.7" x2="4536.8" y2="1697.7"/>
	<line id="route-path-63" class="st9" x1="4536.8" y1="1589.7" x2="4536.8" y2="1697.7"/>
	<line id="route-path-64" class="st9" x1="4536.8" y1="1850.6" x2="4536.8" y2="1697.7"/>
	<line id="route-path-65" class="st9" x1="4662" y1="1697.7" x2="4647.1" y2="1697.7"/>
	<line id="route-path-66" class="st9" x1="4647.1" y1="1688.2" x2="4647.1" y2="1697.7"/>
	<line id="route-path-67" class="st9" x1="4647.1" y1="1706.8" x2="4647.1" y2="1697.7"/>
	<line id="route-path-68" class="st9" x1="4662" y1="1697.7" x2="4662" y2="1589.7"/>
	<line id="route-path-69" class="st9" x1="4662" y1="1697.7" x2="4694.2" y2="1697.7"/>
	<line id="route-path-70" class="st9" x1="4825.6" y1="1697.8" x2="4694.2" y2="1697.7"/>
	<line id="route-path-71" class="st9" x1="4825.6" y1="1697.8" x2="4825.6" y2="1335.2"/>
	<line id="route-path-72" class="st9" x1="4837.5" y1="1697.8" x2="4825.6" y2="1697.8"/>
	<line id="route-path-73" class="st9" x1="4014.9" y1="1697.7" x2="4014.9" y2="1797.3"/>
	<line id="route-path-74" class="st9" x1="3787.6" y1="1697.7" x2="4014.9" y2="1697.7"/>
	<line id="route-path-75" class="st9" x1="4054.7" y1="1589.7" x2="4054.7" y2="1697.7"/>
	<line id="route-path-76" class="st9" x1="3787.6" y1="1697.7" x2="3787.6" y2="1796.3"/>
	<line id="route-path-77" class="st9" x1="3287.7" y1="1892.5" x2="3493.7" y2="1891.6"/>
	<line id="route-path-78" class="st9" x1="3261.1" y1="1892.6" x2="3287.7" y2="1892.5"/>
	<line id="route-path-79" class="st9" x1="3287.7" y1="1883.6" x2="3287.7" y2="1892.5"/>
	<line id="route-path-80" class="st9" x1="3287.7" y1="1900.2" x2="3287.7" y2="1892.5"/>
	<line id="route-path-81" class="st9" x1="3228.9" y1="1841.5" x2="3228.9" y2="1892.6"/>
	<line id="route-path-82" class="st9" x1="2503.9" y1="1765.5" x2="2503.9" y2="1997.6"/>
	<line id="route-path-83" class="st9" x1="2503.9" y1="1765.5" x2="2411.6" y2="1765.5"/>
	<line id="route-path-84" class="st9" x1="2503.9" y1="1765.5" x2="2592" y2="1765.5"/>
	<line id="route-path-85" class="st9" x1="2503.9" y1="1645.7" x2="2503.9" y2="1765.5"/>
	<line id="route-path-86" class="st9" x1="2503.9" y1="2095.3" x2="2503.8" y2="2127.4"/>
	<line id="route-path-87" class="st9" x1="2489" y1="2127.4" x2="2503.8" y2="2127.4"/>
	<line id="route-path-88" class="st9" x1="2519.9" y1="2127.4" x2="2503.8" y2="2127.4"/>
	<line id="route-path-89" class="st9" x1="2503.8" y1="2178.6" x2="2503.8" y2="2127.4"/>
	<line id="route-path-90" class="st9" x1="2503.8" y1="2178.6" x2="2554.2" y2="2178.6"/>
	<line id="route-path-91" class="st9" x1="2503.8" y1="2252" x2="2503.8" y2="2178.6"/>
	<line id="route-path-92" class="st9" x1="2503.8" y1="2252" x2="2448.7" y2="2252"/>
	<line id="route-path-93" class="st9" x1="2503.9" y1="2440.1" x2="2503.8" y2="2252"/>
	<line id="route-path-94" class="st9" x1="2185.9" y1="1997.6" x2="2185.9" y2="2045.1"/>
	<line id="route-path-95" class="st9" x1="2129" y1="2044.4" x2="2129" y2="1997.6"/>
	<line id="route-path-96" class="st9" x1="2124.5" y1="1997.6" x2="2124.5" y2="1927"/>
	<line id="route-path-97" class="st9" x1="2081.5" y1="2044.8" x2="2081.5" y2="1997.6"/>
	<line id="route-path-98" class="st9" x1="1989.2" y1="1997.6" x2="1989.2" y2="2045.1"/>
	<line id="route-path-99" class="st9" x1="1512.7" y1="1997.6" x2="1512.7" y2="2044.1"/>
	<line id="route-path-100" class="st9" x1="1565.6" y1="1997.6" x2="1512.7" y2="1997.6"/>
	<line id="route-path-101" class="st9" x1="1450.8" y1="1997.6" x2="1512.7" y2="1997.6"/>
	<line id="route-path-102" class="st9" x1="1565.6" y1="1997.6" x2="1565.6" y2="1951.8"/>
	<line id="route-path-103" class="st9" x1="1636.8" y1="1997.6" x2="1565.6" y2="1997.6"/>
	<line id="route-path-104" class="st9" x1="1636.8" y1="1997.6" x2="1636.8" y2="2043.7"/>
	<line id="route-path-105" class="st9" x1="1729.3" y1="1997.6" x2="1636.8" y2="1997.6"/>
	<line id="route-path-106" class="st9" x1="1729.3" y1="1997.6" x2="1729.3" y2="1943.1"/>
	<line id="route-path-107" class="st9" x1="1810.5" y1="1997.6" x2="1729.3" y2="1997.6"/>
	<line id="route-path-108" class="st9" x1="1810.5" y1="1997.6" x2="1811.2" y2="1839.6"/>
	<line id="route-path-109" class="st9" x1="1989.2" y1="1997.6" x2="1810.5" y2="1997.6"/>
	<line id="route-path-110" class="st9" x1="1997.4" y1="1893.9" x2="1989.2" y2="1893.9"/>
	<line id="route-path-111" class="st9" x1="1997.4" y1="1893.9" x2="1997.4" y2="1887.4"/>
	<line id="route-path-112" class="st9" x1="1997.4" y1="1893.9" x2="1997.4" y2="1900.3"/>
	<line id="route-path-113" class="st9" x1="2020.8" y1="1894.1" x2="1997.4" y2="1893.9"/>
</g>
</svg>
