<svg version="1.1" id="Layer_1" xmlns="http://www.w3.org/2000/svg" x="0px" y="0px" viewBox="0 0 576 576">
  <path d="M576,145.2v268.6c-0.1,1.6-0.3,3.1-0.3,4.7c-0.3,33.3-0.6,66.6-0.8,99.9c-0.1,21.1-9.7,37.2-26.7,49 c-7.7,5.4-15.9,9.3-25.9,8c-3.8-0.5-7.7-0.1-11.5-0.1c-115.3,0.1-230.6,0.2-345.9,0.3c-1.1,0-2.2,0.2-3.3,0.3h-16.9 c-1.2-0.1-2.4-0.3-3.6-0.3c-30.2-0.3-60.4-0.6-90.7-0.8c-11.1-0.1-20.7-4.1-29.1-11.2c-8.7-7.4-15.5-16.7-19.9-27.3l-0.2-0.5 c-0.7-1.6-1.1-3.4-1.2-5.4v0C0,492.8,0,455.1,0,417.4c0-124.1,0-248.1,0-372.2c0-0.2,0-0.3,0-0.5c0-1.5,0.3-2.9,0.7-4.2l0,0.1 C8.3,22.5,20.5,8.9,38.7,1c1.2-0.5,2.6-0.9,4-0.9h0c162.8,0,325.6,0,488.4,0c1.5,0,2.8,0.4,4.1,0.9l-0.1,0c3.4,1.4,6.1,2.7,8.8,4.2 l-0.4-0.2c19.7,11.2,30.9,27.8,31.3,50.8c0.4,28.2,0.6,56.3,0.8,84.5C575.7,141.8,575.8,143.5,576,145.2L576,145.2z M536.4,288.6 h0.3c0-56.7,0-113.4,0-170c0-18.2-0.4-36.4-0.7-54.6c-0.1-8-8.4-19.8-15.9-22.7c-1-0.4-2.1-0.6-3.2-0.7h0c-3.2-0.3-6.4-0.6-9.5-0.6 c-25.5-0.4-51-0.9-76.6-1c-96.4-0.2-192.7-0.4-289.1-0.4c-22.9,0-45.8,0.1-68.7,0.3c-3.4,0-6.8,0.1-10,0.9 c-9.9,2.3-17.1,8.3-21.7,17.3c-1,1.9-2,3.9-2.1,5.9c-0.1,149.8-0.1,299.6-0.1,449.4c0,0.9-0.1,2,0.3,2.7c2.7,4.2,5.1,8.6,8.3,12.3 c5.6,6.3,13.2,8.4,21.6,8.4c23.7,0.1,47.5,0.6,71.2,0.6c123.5,0,247,0,370.5,0c0.1,0,0.2,0,0.3,0c1.1,0,2.1-0.2,3-0.6l-0.1,0 c8.3-3.5,15.4-8.4,20.2-16.3c1.2-1.8,2-4.1,2-6.5l0,0C536.4,438.2,536.4,363.4,536.4,288.6L536.4,288.6z"/>
  <path d="M307,277.5l75.9,68.4l0.9-0.2V150.9h49.7v194.8l1,0.3l78.2-67.4c0.1,1,0.2,1.7,0.3,2.4c0.3,19.9,0.6,39.8,0.8,59.7 c0,0,0,0,0,0.1c0,1.4-0.5,2.6-1.4,3.6l0,0c-34.1,32.7-68.2,65.3-102.3,97.9c-0.3,0.3-0.6,0.5-1,0.9c-0.6-0.5-1.3-1-1.9-1.5 c-32.7-30.7-65.5-61.4-98.2-92c-1.4-1.2-2.3-3-2.3-5c0-0.1,0-0.3,0-0.4v0c0.2-20.9,0.3-41.9,0.4-62.8C307,280.5,307,279.4,307,277.5 L307,277.5z"/>
  <path d="M142.2,234.5L67,301.8c-0.1-1.2-0.3-1.9-0.3-2.7c-0.3-20.7-0.7-41.5-1-62.2c0-1.3,0.5-2.5,1.3-3.4l0,0 c33.3-31.4,66.7-62.8,100.1-94.1c0.3-0.3,0.6-0.5,1-0.8c5.9,5.7,11.8,11.3,17.7,16.9c28.1,26.9,56.2,53.9,84.3,80.9 c0.9,0.8,1.4,2,1.5,3.3v0c-0.5,20.2-1.1,40.3-1.6,60.5c0,0.3-0.1,0.7-0.2,1.7l-77.4-67.1l-0.9,0.1v193.9h-48.3v-194L142.2,234.5z"/>
</svg>
