<svg version="1.1" id="Layer_1" xmlns="http://www.w3.org/2000/svg" x="0px" y="0px" viewBox="0 0 576 533.9">
  <path d="M282.3,533.9h9.2V0h-9.2V533.9z"/>
  <path d="M118.2,97.1c25.4-4.6,41.6-30.1,34.7-55.5C146,16.2,122.9,2.3,97.4,6.9S58.1,39.3,62.8,62.4S95.1,104,118.2,97.1z"/>
  <path d="M159.8,145.6h4.6c0,0,2.3,0,2.3,2.3L183,270.4c2.3,9.2,9.2,16.2,18.5,16.2c11.6,0,18.5-9.2,18.5-20.8l-18.5-129.4 c-2.3-13.9-13.9-23.1-27.7-23.1H44.3c-13.9,0-25.4,9.2-27.7,23.1L0.4,265.8c-2.3,11.6,6.9,20.8,18.5,20.8c9.2,0,16.2-6.9,18.5-16.2 l16.2-122.5c0,0,0-2.3,2.3-2.3h4.6c0,0,2.3,0,2.3,2.3L30.4,390.6c0,0,0,2.3,2.3,2.3h37c0,0,2.3,0,2.3,2.3v117.9 c0,9.2,6.9,16.2,16.2,16.2s16.2-6.9,16.2-16.2V393c0,0,0-2.3,2.3-2.3h11.6c0,0,2.3,0,2.3,2.3v117.9c0,9.2,6.9,16.2,16.2,16.2 c9.2,0,16.2-6.9,16.2-16.2V393c0,0,0-2.3,2.3-2.3h30.1c0,0,2.3,0,2.3-2.3l-27.7-242.7l0,0l0,0L159.8,145.6z"/>
  <path d="M497.3,76.3c13.9-23.1,4.6-50.9-16.2-62.4s-50.9-6.9-64.7,16.2c-13.9,23.1-4.6,50.9,16.2,62.4 C455.7,106.3,483.5,99.4,497.3,76.3z"/>
  <path d="M545.9,113.3h-178c-13.9,0-25.4,9.2-27.7,23.1v129.4c0,11.6,9.2,20.8,20.8,20.8s18.5-9.2,18.5-20.8V159.5c0,0,0-2.3,2.3-2.3 h2.3c0,0,2.3,0,2.3,2.3l25.4,161.8v187.2c0,11.6,9.2,20.8,20.8,20.8l0,0c11.6,0,20.8-9.2,20.8-20.8V323.6c0,0,0-2.3,2.3-2.3h6.9 c0,0,2.3,0,2.3,2.3v184.9c0,11.6,9.2,20.8,20.8,20.8l0,0c11.6,0,20.8-9.2,20.8-20.8V321.3l25.4-161.8c0,0,0-2.3,2.3-2.3h-2.3 c0,0,2.3,0,2.3,2.3v106.3c0,11.6,9.2,20.8,20.8,20.8s20.8-9.2,20.8-20.8V136.4C571.4,122.5,559.8,113.3,545.9,113.3L545.9,113.3 L545.9,113.3z"/>
</svg>
