<svg version="1.1" id="Layer_1" xmlns="http://www.w3.org/2000/svg" x="0px" y="0px" viewBox="0 0 576 414.6">
  <path d="M371.6,180.4c66.8,0,101,58.5,121.4,121.9l16.4,50.4c2.7,8.8-7.5,16.3-16.4,16.3h-56.6l-7.5-27.2 c-17.7-53.1-45-106.2-94.8-125.9c13-8.8,23.9-21.1,30.7-35.4C366.1,180.4,368.8,180.4,371.6,180.4z M441.2,145.7 c64.8,2,98.2,59.2,118.7,121.9l15.7,49.7c2.7,8.8-7.5,17.7-16.4,17.7h-35.5l-12.3-38.1c-16.4-53.1-44.3-106.2-94.8-125.9 C426.2,162.7,434.3,155.2,441.2,145.7z M51.6,334.3H16.8c-9.6,0-19.1-8.2-16.4-17.7l15.7-49.7C35.9,204.2,70.1,147.1,134.9,145 c6.1,9.5,15,18.4,24.6,24.5c-49.8,19.7-77.8,72.8-94.8,125.9L51.6,334.3L51.6,334.3z M437.7,0c35.5,0,64.8,28.6,64.8,64.7 c0,31.3-22.5,57.2-52.5,62.6c3.4-8.8,5.5-18.4,5.5-27.9c0-39.5-27.3-71.5-62.8-81C403.6,6.8,419.3,0,437.7,0L437.7,0z M137.6,0 c17.7,0,34.1,6.8,45,18.4c-35.5,9.5-62.8,41.5-62.8,81c0,9.5,2.1,19.1,5.5,27.9C96,121.9,72.8,96,72.8,64.7 C73.5,28.6,102.1,0,137.6,0L137.6,0z M287.7,0c19.8,0,37.5,8.8,49.8,22.5c-15.7,6.8-29.3,19.1-38.2,34l-3.4,5.5c-2.7,0-5.5,0-7.5,0 c-2,0-6.1,0-8.9,0l-3.4-5.5c-9.6-15-22.5-27.2-38.2-34C250.2,8.9,267.9,0,287.7,0L287.7,0z M287.7,226c66.8,0,101,58.5,122.1,121.9 l15.7,50.4c2.7,8.8-8.2,16.3-16.4,16.3H166.2c-9.6,0-19.8-8.2-16.4-16.3l15.7-50.4C186,284.6,220.8,226,287.7,226z M287.7,81 c35.5,0,64.8,28.6,64.8,64.7s-28.7,64.7-64.8,64.7c-35.5,0-64.8-28.6-64.8-64.7S252.2,81,287.7,81z M138.3,369H82.3 c-9.6,0-19.1-8.2-16.4-16.3l15.7-50.4c21.1-63.3,55.3-121.9,122.1-121.9c2.7,0,5.5,0,7.5,0c6.1,15,17.7,27.2,30.7,35.4 c-49.8,19.7-78.5,72.8-94.8,125.9C147.1,341.8,138.3,369,138.3,369z M203.8,34.7c23.9,0,44.3,12.9,55.9,31.3 c-32.1,12.2-55.9,42.9-55.9,79c0,6.1,0.7,12.2,2.1,18.4h-2.1c-35.5,0-64.8-28.6-64.8-64.7S168.3,34.7,203.8,34.7z M371.6,34.7 c35.5,0,64.8,28.6,64.8,64.7s-29.3,64-64.8,64h-2.7c2.1-6.1,2.7-12.2,2.7-18.4c0-36.8-23.9-66.7-55.9-79 C327.2,47.7,347,34.7,371.6,34.7z"/>
</svg>
