<?xml version="1.0" encoding="utf-8"?>
<!-- Generator: Adobe Illustrator 24.0.1, SVG Export Plug-In . SVG Version: 6.00 Build 0)  -->
<svg version="1.1" id="Layer_1" xmlns="http://www.w3.org/2000/svg" xmlns:xlink="http://www.w3.org/1999/xlink" x="0px" y="0px"
	 viewBox="0 0 577.8 577" style="enable-background:new 0 0 577.8 577;" xml:space="preserve">
<title>amenity-atm</title>
<path d="M388.7,314c-3.7-10.3-10.3-19.8-17.7-27.2c-7.4-7.4-17.7-14-29.5-19.1c-6.6-2.9-19.2-6.6-39.1-11.8V144.2
	c13.3,2.2,22.8,8.1,30.2,16.2c7.4,8.1,11.8,19.9,14,35.3l39.8-5.9c-2.9-24.3-13.3-44.1-30.2-58.1c-13.3-11-31-17.7-53.8-19.8V93.4
	h-24.3v18.4c-25.8,2.2-45,9.6-58.2,21.3c-19.9,17.7-29.5,39.7-29.5,67.6c0,15.5,3.7,29.4,10.3,41.9s16.2,22,28.7,28.7
	c17,9.6,33.2,16.2,49.4,20.6v121.3c-14.8-1.5-28-8.8-39.1-22.8c-7.4-9.6-13.3-25-16.2-46.3l-39.1,7.4c1.5,20.6,6.6,37.5,15.5,51.5
	s19.9,23.5,31.7,30.1c12.5,6.6,28,11,47.9,13.2v39v-0.1V483h22.1v-39c28-0.7,50.1-11,67.1-28.7c17-18.4,25.8-40.4,25.8-67.6
	C394.6,336,392.4,324.3,388.7,314z M278.9,145.1v107.2c-17.7-5.2-30.2-11.8-37.6-20.6s-11.1-19.8-11.1-33.1c0-14,4.4-25.7,13.3-35.3
	C252.2,153.9,263.7,147.4,278.9,145.1V145h0.7C279.3,145,279.1,145,278.9,145.1z M340,394.2c-9.6,11-22.1,18.4-37.6,19.8l0,0V297.9
	c20.6,5.2,34.6,11.8,42,20.6c6.6,8.1,10.3,19.8,10.3,33.8C354.8,369.2,349.6,383.1,340,394.2z"/>
<path d="M289.8,2.5c-158.7,0-288,128-288,287.2c0,158.3,129.3,287.2,288,287.2s288-128.9,288-287.2S448.6,2.5,289.8,2.5z
	 M289.9,533.9C155,533.9,45.2,424.3,45.2,289.8C45.2,154.5,155,45.7,289.9,45.7s244.7,109.5,244.7,244.1S424.8,533.9,289.9,533.9z"
	/>
</svg>
