<svg version="1.1" id="Layer_1" xmlns="http://www.w3.org/2000/svg" x="0px" y="0px" viewBox="0 0 576 537.9">
  <path d="M384.3,137c38,0,68.8-30.7,68.8-68.5S422.3,0,384.3,0s-68.8,30.7-68.8,68.5S346.4,137,384.3,137z"/>
  <path d="M283.3,96c20,26.3,35.9,53.3,67.6,64.4c31.2,11.1,60.5,11.1,83.5-5.3c22.9-16.4,34.7-46.8,54.1-87.2 c18.8-40.4,34.1-48,57-48c23.5,0,31.2,28.1,30.6,39.8s-10.6,31-40,52.7c-49.4,36.3-57.6,108.3-59.4,127.7 c-1.8,19.3-2.9,50.4,17.6,169.2c20.6,118.9-20,125.9-25.3,127.1c-5.3,0.6-21.2,8.2-31.1-16.4c-10-24.6-11.8-91.3-14.1-120 c-2.9-28.7-6.5-70.9-35.9-79c-30-8.2-40.6,39.8-51.7,76.1c-10.6,36.9-40,71.4-72.3,59.1s-29.4-50.4-10-78.5 c19.4-27.5,61.7-57.4,67.6-124.1c5.9-66.8-11.8-69.1-68.2-90.8c-55.8-22.3-60.5-33.4-67.6-48.6s7.6-46.8,31.1-52.7 C239.2,55.1,259.1,63.9,283.3,96L283.3,96z"/>
  <path d="M134.7,251.7c26.9,0,48.8-21.8,48.8-48.6s-21.8-48.6-48.8-48.6s-48.8,21.8-48.8,48.6S107.7,251.7,134.7,251.7z"/>
  <path d="M204,227.8c-15.3,17.6-28.2,35.7-51.1,41.6c-22.9,6.4-43.5,4.7-58.8-8.2c-15.3-12.9-21.7-35.1-32.9-64.4S40,161,23.5,159.8 C7.1,158.7,0,178,0,186.2c-0.6,8.2,5.9,22.3,25.3,39.2C58.2,253.5,60,305.1,60,318.5c0.6,13.5-0.6,35.7-21.7,118.3 s7.1,89.6,10.6,90.8s14.7,7,22.9-10s12.9-63.8,16.5-83.7c3.5-19.9,8.2-49.8,29.4-53.9s26.5,30.4,32.3,56.8 c5.9,26.3,24.7,52.7,47.6,45.7c22.9-7,23.5-34,11.2-54.4c-12.3-20.5-40-43.9-40.6-90.8c-0.6-47.4,12.3-48,52.9-60.3 c40.6-12.3,44.7-20.5,50.5-30.4c5.9-10-2.9-33.4-18.8-38.6C237.5,201.4,222.8,206.7,204,227.8L204,227.8z"/>
</svg>