<svg version="1.1" id="Layer_1" xmlns="http://www.w3.org/2000/svg" x="0px" y="0px" viewBox="0 0 576 522.5">
  <path d="M119.8,91.5c25-5.9,40.5-30.8,34.6-55.7c-5.9-24.9-30.9-40.4-55.9-34.5S58,32,63.9,56.9S94.8,97.3,119.8,91.5z"/>
  <path d="M160.6,139.1h4.5c0.6,0,1.3,0.6,1.3,1.3l15.3,123.1c1.3,8.9,8.9,15.9,17.8,15.9c10.8,0,19.1-9.5,17.8-20.3l-15.9-128.9 c-1.9-13.3-13.4-24.1-27.4-24.1H43.4c-14,0-25.5,10.2-27.4,24.1L0.1,259.1c-1.3,10.8,7,20.3,17.8,20.3c8.9,0,16.5-7,17.8-15.9 l15.3-123.8c0-0.6,0.6-1.3,1.3-1.3h4.5c0.6,0,1.3,0.6,1.3,1.3L29.4,384.1c0,0.6,0.6,1.3,1.3,1.3H67c0.6,0,1.3,0.6,1.3,1.3v118.1 c0,9.5,7.6,16.5,16.5,16.5c9.5,0,16.5-7.6,16.5-16.5V387.3c0-0.6,0.6-1.3,1.3-1.3h10.8c0.6,0,1.3,0.6,1.3,1.3v118.1 c0,9.5,7.6,16.5,16.5,16.5c9.5,0,16.5-7.6,16.5-16.5V387.3c0-0.6,0.6-1.3,1.3-1.3h36.3c0.6,0,1.3-0.6,1.3-1.3L158,140.3 C159.3,139.7,159.9,139.1,160.6,139.1L160.6,139.1z"/>
  <path d="M498.9,69.8c12.9-22.1,5.4-50.5-16.8-63.4c-22.2-12.9-50.6-5.4-63.6,16.7c-12.9,22.1-5.4,50.5,16.8,63.4 C457.5,99.4,486,91.9,498.9,69.8z"/>
  <path d="M547.9,106.1H369.6c-14,0-25.5,10.2-27.4,24.1v128.9c0,10.8,8.9,19.7,19.7,19.7s19.7-8.9,19.7-19.7v-106 c0-0.6,0.6-1.3,1.3-1.3h2.5c0.6,0,1.3,0.6,1.3,1.3l25.5,162.5v187.3c0,10.8,8.9,19.7,19.7,19.7h0.6c10.8,0,19.7-8.9,19.7-19.7v-186 c0-0.6,0.6-1.3,1.3-1.3h10.8c0.6,0,1.3,0.6,1.3,1.3v186c0,10.8,8.9,19.7,19.7,19.7h0.6c10.8,0,19.7-8.9,19.7-19.7V315.6l25.5-162.5 c0-0.6,0.6-1.3,1.3-1.3h2.6c0.6,0,1.3,0.6,1.3,1.3v106c0,10.8,8.9,19.7,19.7,19.7s19.7-8.9,19.7-19.7V130.2 C573.4,116.2,562,106.1,547.9,106.1L547.9,106.1z"/>
  <path d="M259.6,480l19.7-19.7L251.9,433L229,455.8c-7.6,7.6-5.7,20.3,1.3,27.3l32.5,33.6c12.7,12.7,29.3-5.1,17.2-17.1L259.6,480 L259.6,480z M288.9,347.9c19.1,0,34.4-15.2,34.4-34.3s-15.3-34.3-34.4-34.3s-34.4,15.2-34.4,34.3S269.7,347.9,288.9,347.9z  M369.7,405.7l-46.5-46.3c-3.8-3.8-8.3-6.3-14.7-6.3h-41.4c-6.4,0-10.8,2.5-14,6.3l-45.9,45.7c-12.7,12.7,4.5,28.6,17.2,15.9 l28-27.9v26h72.6v-26l28.6,28.6C364.6,433.6,381.8,417.1,369.7,405.7L369.7,405.7z M324.5,433l-27.4,27.3l19.7,19.7l-20.4,20.3 c-12.1,12.1,4.5,29.2,17.2,17.1l32.5-33.6c7-7,8.9-20.3,1.3-27.3C347.4,455.9,324.5,433,324.5,433z"/>
</svg>
