<svg version="1.1" id="Layer_1" xmlns="http://www.w3.org/2000/svg" x="0px" y="0px" viewBox="0 0 576 597.6">
  <path d="M554,80.7L298.5,1.5c-6.6-2-13.2-2-19.9,0L23.2,80.7C9.3,84.7,0,97.9,0,112.4c0,352.5,178.7,436.4,274,481.9 c4.6,2,9.3,3.3,13.9,3.3c4.6,0,9.9-1.3,13.9-3.3c96-45.5,274-129.4,274-481.9C577.2,97.9,567.9,85.3,554,80.7z M288.6,527.6 C197.2,484.1,73.5,411.4,66.2,136.2l222.4-68.6L511,136.8C503.7,412.1,379.3,484.1,288.6,527.6z"/>
  <path d="M278.7,152l-26.5,87.1l-90.7-2.6c-4.6,0-8.6,2.6-9.9,7.3c-1.3,4.6,0,9.2,4,11.9l74.8,51.5L200.6,393c-1.3,4.6,0,9.2,4,11.9 c4,2.6,8.6,2.6,12.6,0l72.1-54.8l72.1,54.8c4,2.6,8.6,2.6,12.6,0c4-2.6,5.3-7.3,4-11.9l-29.8-85.8l74.8-51.5c4-2.6,5.3-7.3,4-11.9 c-1.3-4.6-5.3-7.3-9.9-7.3l-90.7,2l-26.5-87.1c-1.3-4.6-5.3-7.3-9.9-7.3C283.9,144.1,280,147.4,278.7,152L278.7,152z"/>
</svg>